<svg xmlns="http://www.w3.org/2000/svg" xmlns:xlink="http://www.w3.org/1999/xlink" id="Layer_1" data-name="Layer 1" viewBox="0 0 419 384"><defs><style>.cls-1{fill:none}.cls-2{fill:url(#linear-gradient)}.cls-3{fill:url(#linear-gradient-2)}.cls-4{fill:url(#linear-gradient-3)}.cls-5{fill:#5293cf}.cls-6{fill:url(#linear-gradient-4)}</style><linearGradient id="linear-gradient" x1="241.362" x2="189.476" y1="43.393" y2="43.393" gradientTransform="matrix(1, 0.0072, 0.0072, -1, 2.9765, 258.152)" gradientUnits="userSpaceOnUse"><stop offset="0" stop-color="#d4a92a"/><stop offset=".503" stop-color="#f79520"/><stop offset=".991" stop-color="#f68a28"/><stop offset="1" stop-color="#f68a28"/></linearGradient><linearGradient id="linear-gradient-2" x1="183.655" x2="98.699" y1="149.933" y2="149.933" xlink:href="#linear-gradient"/><linearGradient id="linear-gradient-3" x1="412.711" x2="130.538" y1="153.868" y2="153.868" xlink:href="#linear-gradient"/><linearGradient id="linear-gradient-4" x1="33.452" x2="99.357" y1="-23.542" y2="90.609" gradientTransform="matrix(1, 0, 0, -1, 0, 258)" gradientUnits="userSpaceOnUse"><stop offset=".251" stop-color="#00bbcb"/><stop offset="1" stop-color="#f79520"/></linearGradient></defs><title>launch</title><circle cx="256.008" cy="128.003" r="256.006" class="cls-1"/><path d="M244.9,181.3c-7.6,3.3-14,6.2-20.3,9-8.8,3.9-31.3,14.4-31.3,14.4a73.4833,73.4833,0,0,0-.4,8.7c.2,13.3-.2,23.1-.3,37.9,11.9-5.6,42.2-18.6,42.2-18.6" class="cls-2"/><path d="M187.8,96c-6.1,5.6-11.3,10.3-16.4,15-7.1,6.5-25.8,22.8-25.8,22.8s-4.2-1.4-8.1-3.1c-12.1-5.5-21.2-9.2-34.8-15.1,10-8.6,34.1-31,34.1-31" class="cls-3"/><path d="M358.8,110.4C391.1,83.6,407,48.1,417.5,7.6c-8.9-.8-16.8-1.5-24.6-2.1-30.8-2.5-61,1-89.2,13.3-16.9,7.4-32.6,18.1-47.3,29.3-17.6,13.4-33.7,28.8-50.3,43.5q-35.1,30.9-69.7,62.3a9.0169,9.0169,0,0,0-2,7.4A100.4621,100.4621,0,0,0,158.5,202c6.8,7.1,6.9,6.9,15.9,2.7,33.5-15.6,66.9-31.8,100.8-46.6C304.7,145,333.5,131.3,358.8,110.4ZM292.5,89a22.6488,22.6488,0,0,1,6.9-31.9c10.6-6.7,25.4-3.6,32.3,6.8a23.2117,23.2117,0,0,1-6.5,32.2C314.9,103,299.5,99.6,292.5,89Z" class="cls-4"/><path d="M26.9,13.8A256.0348,256.0348,0,0,0,247.5,383.9C-19.9,280.8,26.6,15.5,26.9,13.8Z" class="cls-5"/><path d="M137.9,201.9l-12.2-19.3C60,214.6,14.5,213.1,14.5,213.1s9.3,37.9,53,88.1C59.3,241.7,137.9,201.9,137.9,201.9Z" class="cls-6"/></svg>